CATALOG 5020717200444
FILE "Banshee (1994)(Core)(M4)(Track 1 of 3)[!].iso" BINARY
  TRACK 01 MODE1/2048
    INDEX 01 00:00:00
FILE "Banshee (1994)(Core)(M4)(Track 2 of 3)[!].wav" WAVE
  TRACK 02 AUDIO
    PREGAP 00:02:00
    INDEX 01 00:00:00
FILE "Banshee (1994)(Core)(M4)(Track 3 of 3)[!].wav" WAVE
  TRACK 03 AUDIO
    INDEX 01 00:00:00
